<?xml version="1.0" encoding="UTF-8" standalone="no"?>
<!-- Created with Inkscape (http://www.inkscape.org/) -->

<svg
   width="92.826561mm"
   height="92.84993mm"
   viewBox="0 0 92.826561 92.84993"
   version="1.1"
   id="svg1"
   xml:space="preserve"
   xmlns="http://www.w3.org/2000/svg"
   xmlns:svg="http://www.w3.org/2000/svg"><defs
     id="defs1" /><g
     id="layer1"
     transform="translate(-93.090141,-129.49154)"><path
       style="fill:#000000"
       d="m 135.23985,222.14581 c -6.99457,-0.66691 -13.99185,-2.99838 -19.93622,-6.64271 -5.97675,-3.66417 -11.73432,-9.42173 -15.398487,-15.39848 -8.35014,-13.62019 -9.074093,-30.64424 -1.911615,-44.95246 3.768402,-7.528 10.108562,-14.43057 17.310102,-18.84562 13.62018,-8.35014 30.64424,-9.0741 44.95245,-1.91162 7.528,3.7684 14.43058,10.10856 18.84563,17.3101 8.35014,13.62019 9.07409,30.64424 1.91161,44.95246 -3.7684,7.528 -10.10856,14.43057 -17.3101,18.84562 -8.43067,5.16861 -18.72548,7.57118 -28.46337,6.64271 z m 8.61587,-8.51443 c 14.40476,-1.54355 27.17733,-11.94712 31.72769,-25.84299 1.32028,-4.03184 1.85414,-7.45349 1.85414,-11.88357 0,-1.57291 -0.0892,-3.58389 -0.19821,-4.46885 -2.14633,-17.42312 -15.84395,-31.12073 -33.26707,-33.26706 -2.06871,-0.25485 -6.86898,-0.25485 -8.93769,0 -17.42312,2.14633 -31.12074,15.84394 -33.26707,33.26706 -0.25484,2.06871 -0.25484,6.86899 0,8.9377 1.58159,12.83873 9.41283,23.83852 21.1352,29.68657 6.28357,3.13474 13.51835,4.36781 20.95301,3.57114 z m -6.07587,-11.40124 c -0.39914,-0.1852 -0.98691,-0.61203 -1.30616,-0.94852 -1.19395,-1.25844 -1.14312,-0.5675 -1.14312,-15.53821 v -13.57735 l 0.47808,-0.95938 c 1.51784,-3.0459 5.87172,-3.0459 7.38955,0 l 0.47808,0.95938 -0.004,13.61688 c -0.004,12.87813 -0.0223,13.65625 -0.3407,14.3426 -0.41613,0.89686 -1.34296,1.79595 -2.23484,2.16794 -0.91001,0.37956 -2.42468,0.35063 -3.3169,-0.0633 z m 0.76522,-41.9472 c -2.72286,-0.42054 -4.89018,-3.19867 -4.61037,-5.9097 0.3045,-2.95036 2.6758,-5.13842 5.56873,-5.13842 2.19777,0 4.11053,1.22889 5.05799,3.2496 0.38327,0.81743 0.47432,1.27772 0.46978,2.37468 -0.009,2.23196 -1.07307,3.93816 -3.03959,4.87507 -1.2632,0.60183 -2.16911,0.74607 -3.44654,0.54877 z"
       id="path1" /></g></svg>
