<?xml version="1.0" encoding="UTF-8" standalone="no"?>
<!-- Created with Inkscape (http://www.inkscape.org/) -->

<svg
   width="210mm"
   height="210mm"
   viewBox="0 0 210 210"
   version="1.1"
   id="svg1"
   xml:space="preserve"
   xmlns:inkscape="http://www.inkscape.org/namespaces/inkscape"
   xmlns:sodipodi="http://sodipodi.sourceforge.net/DTD/sodipodi-0.dtd"
   xmlns="http://www.w3.org/2000/svg"
   xmlns:svg="http://www.w3.org/2000/svg"><sodipodi:namedview
     id="namedview1"
     pagecolor="#ffffff"
     bordercolor="#000000"
     borderopacity="0.25"
     inkscape:showpageshadow="2"
     inkscape:pageopacity="0.0"
     inkscape:pagecheckerboard="0"
     inkscape:deskcolor="#d1d1d1"
     inkscape:document-units="mm"><inkscape:page
       x="0"
       y="0"
       width="210"
       height="210"
       id="page2"
       margin="0"
       bleed="0" /></sodipodi:namedview><defs
     id="defs1" /><g
     inkscape:label="Layer 1"
     inkscape:groupmode="layer"
     id="layer1"><path
       style="fill:#000000;stroke-width:1.63442"
       d="M 85.876252,192.6819 C 84.989539,192.4031 83.538554,191.70577 82.65184,191.1323 80.038965,189.44244 4.4577501,113.48478 3.5384374,111.62484 1.4445907,107.38863 1.4296848,102.88332 3.4949455,98.480535 4.6069874,96.109868 7.7432203,92.864988 43.072689,57.531737 86.894558,13.705176 83.185538,16.893473 90.309815,16.926413 c 4.648686,0.02149 6.66329,0.716496 9.49646,3.276094 3.485895,3.149282 5.064255,7.199571 4.697165,12.053463 -0.43505,5.752218 0.0817,5.12319 -24.424333,29.725818 -12.10737,12.155047 -23.101638,22.880018 -24.431709,23.83327 -1.330068,0.953253 -3.597232,2.344034 -5.038141,3.090626 l -2.619833,1.357439 74.564496,0.201525 74.5645,0.201526 2.28738,1.072282 c 3.24121,1.519421 5.75205,3.989617 7.26491,7.147268 1.11209,2.321186 1.27926,3.103146 1.30294,6.094576 0.0245,3.09128 -0.10378,3.69797 -1.29248,6.11497 -1.63431,3.32306 -4.81697,6.34865 -8.05265,7.65529 l -2.3162,0.93531 -74.27629,0.10607 -74.276268,0.10608 3.669966,1.87581 c 2.274342,1.16246 4.923657,2.9743 6.966704,4.76445 1.813205,1.58875 12.274707,11.98903 23.24778,23.11174 23.277668,23.59508 22.772408,22.94176 22.772408,29.44538 0,3.50452 -0.11981,4.1224 -1.26936,6.54878 -2.25236,4.75398 -7.086316,7.62425 -12.751802,7.5717 -1.598851,-0.0147 -3.632495,-0.25508 -4.519208,-0.53388 z"
       id="path1" /></g></svg>
