<?xml version="1.0" encoding="UTF-8" standalone="no"?>
<!-- Created with Inkscape (http://www.inkscape.org/) -->

<svg
   width="210mm"
   height="210mm"
   viewBox="0 0 210 210"
   version="1.1"
   id="svg1"
   xml:space="preserve"
   inkscape:export-filename="donate2.svg"
   inkscape:export-xdpi="96"
   inkscape:export-ydpi="96"
   xmlns:inkscape="http://www.inkscape.org/namespaces/inkscape"
   xmlns:sodipodi="http://sodipodi.sourceforge.net/DTD/sodipodi-0.dtd"
   xmlns="http://www.w3.org/2000/svg"
   xmlns:svg="http://www.w3.org/2000/svg"><sodipodi:namedview
     id="namedview1"
     pagecolor="#ffffff"
     bordercolor="#000000"
     borderopacity="0.25"
     inkscape:showpageshadow="2"
     inkscape:pageopacity="0.0"
     inkscape:pagecheckerboard="0"
     inkscape:deskcolor="#d1d1d1"
     inkscape:document-units="mm"><inkscape:page
       x="0"
       y="0"
       width="210"
       height="210"
       id="page2"
       margin="0"
       bleed="0" /></sodipodi:namedview><defs
     id="defs1" /><g
     inkscape:label="Layer 1"
     inkscape:groupmode="layer"
     id="layer1"><path
       style="fill:#000000;stroke-width:16.4367"
       d="M 83.086254,208.82364 C 81.255202,208.15138 14.984285,169.97969 12.756648,168.314 10.932039,166.94975 10.442668,166.35885 9.4815797,164.35981 8.7166141,162.76874 8.6972188,160.85583 8.6885073,85.650383 L 8.6795657,8.5716396 9.7517338,6.4199072 C 10.341484,5.2364624 11.121242,4.1575553 11.484494,4.0224454 11.847746,3.8909515 12.398705,3.4241483 12.708702,2.9918622 13.018699,2.5612199 14.02775,1.8643024 14.951099,1.4451657 16.567817,0.71044385 19.001488,0.68250135 80.871848,0.67428295 c 70.371402,-0.0097 66.658342,-0.1314938 69.703742,2.38266875 0.79225,0.6558256 1.9849,2.174251 2.65009,3.375283 l 1.20975,2.1834559 V 19.827679 c 0,12.479261 -0.0493,12.739125 -2.81775,15.806877 -3.84159,4.252183 -10.91761,4.43874 -14.96203,0.394482 -2.38333,-2.383327 -2.96469,-4.117237 -3.14172,-9.371896 l -0.16437,-4.790651 H 93.369025 c -21.989061,0 -39.877486,0.09862 -39.751745,0.228471 0.131494,0.131494 8.825211,6.082249 19.332063,13.236994 10.507017,7.154745 19.750707,13.614545 20.541642,14.355185 0.790607,0.741296 1.799987,2.076781 2.242299,2.969295 0.785676,1.582858 0.807044,2.772384 0.910595,49.222584 l 0.115058,47.59996 h 18.290463 18.29063 l 0.18409,-4.58667 c 0.21039,-5.2563 0.84649,-6.9534 3.49577,-9.34757 4.44268,-4.01369 11.04844,-3.58748 14.94477,0.96484 2.48507,2.90322 2.76055,4.60754 2.60818,16.13758 -0.1315,9.48597 -0.18574,10.18239 -1.03552,11.76837 -1.06674,1.99542 -2.96732,3.97703 -4.74758,4.9514 -1.16208,0.63611 -3.65537,0.72158 -26.55979,0.90567 l -25.277882,0.20381 -0.203815,15.69675 c -0.225184,17.34207 -0.164368,16.88546 -3.001512,19.91146 -2.659628,2.82876 -7.220164,4.00136 -10.656756,2.74001 z M 164.01628,109.43417 V 96.095926 l -21.71045,-0.115057 c -21.52571,-0.115057 -21.72476,-0.115057 -23.39934,-1.019077 -2.3562,-1.260698 -4.54097,-3.963389 -5.29246,-6.54823 -1.69101,-5.817124 1.99394,-11.811436 8.0609,-13.112568 1.27056,-0.27285 9.49632,-0.432286 22.17989,-0.432286 h 20.16146 V 61.516821 48.164935 l 18.65208,18.652075 18.65207,18.652076 -18.65207,18.652074 -18.65208,18.65207 z"
       id="path1" /></g></svg>
