<?xml version="1.0" encoding="UTF-8" standalone="no"?>
<!-- Created with Inkscape (http://www.inkscape.org/) -->

<svg
   width="210mm"
   height="210mm"
   viewBox="0 0 210 210"
   version="1.1"
   id="svg1"
   xml:space="preserve"
   inkscape:export-filename="people.svg"
   inkscape:export-xdpi="96"
   inkscape:export-ydpi="96"
   xmlns:inkscape="http://www.inkscape.org/namespaces/inkscape"
   xmlns:sodipodi="http://sodipodi.sourceforge.net/DTD/sodipodi-0.dtd"
   xmlns="http://www.w3.org/2000/svg"
   xmlns:svg="http://www.w3.org/2000/svg"><sodipodi:namedview
     id="namedview1"
     pagecolor="#ffffff"
     bordercolor="#000000"
     borderopacity="0.25"
     inkscape:showpageshadow="2"
     inkscape:pageopacity="0.0"
     inkscape:pagecheckerboard="0"
     inkscape:deskcolor="#d1d1d1"
     inkscape:document-units="mm"><inkscape:page
       x="0"
       y="0"
       width="210"
       height="210"
       id="page2"
       margin="0"
       bleed="0" /></sodipodi:namedview><defs
     id="defs1" /><g
     inkscape:label="Layer 1"
     inkscape:groupmode="layer"
     id="layer1"><path
       style="fill:#000000;stroke-width:1.54717"
       d="m 9.8232559,183.01132 c -3.8092086,-1.20266 -6.2165504,-3.14852 -8.0101107,-6.47456 -1.26890639,-2.35312 -1.38969841,-2.87956 -1.38969841,-6.05663 0,-3.1777 0.12064813,-3.70327 1.39097331,-6.05902 1.5439449,-2.86319 2.8174201,-4.09675 5.9180802,-5.73261 l 2.0907556,-1.10304 h 95.1749741 95.17498 l 2.57712,1.39737 c 4.47465,2.42627 6.81724,6.37145 6.82689,11.4973 0.009,5.29253 -2.70873,9.56292 -7.52651,11.82224 l -2.28685,1.07244 -94.1516,0.0767 c -74.868533,0.0611 -94.486942,-0.0291 -95.7890041,-0.44023 z m 0,-65.49676 c -3.8092086,-1.20266 -6.2165504,-3.14852 -8.0101107,-6.47457 -1.26890639,-2.3531 -1.38969841,-2.87954 -1.38969841,-6.05662 0,-3.1777 0.12064813,-3.70327 1.39097331,-6.05902 1.5439449,-2.863183 2.8174201,-4.096746 5.9180802,-5.732605 l 2.0907556,-1.103052 h 95.1749741 95.17498 l 2.57712,1.397374 c 4.47465,2.426273 6.81724,6.371458 6.82689,11.497303 0.009,5.29253 -2.70873,9.56292 -7.52651,11.82225 l -2.28685,1.07242 -94.1516,0.0767 c -74.868533,0.0611 -94.486942,-0.0291 -95.7890041,-0.44024 z m 0,-65.496755 C 6.0140473,50.815136 3.6067055,48.869284 1.8131452,45.543235 0.54423881,43.190126 0.42344679,42.663685 0.42344679,39.486609 c 0,-3.177696 0.12064813,-3.703266 1.39097331,-6.059018 1.5439449,-2.863183 2.8174201,-4.096746 5.9180802,-5.732605 l 2.0907556,-1.103052 h 95.1749741 95.17498 l 2.5795,1.398649 c 4.54795,2.465962 6.8303,6.307383 6.8303,11.496026 0,5.297402 -2.71904,9.565033 -7.5323,11.822241 l -2.28685,1.072433 -94.1516,0.07675 C 30.743727,52.519074 11.125318,52.428905 9.8232559,52.01781 Z"
       id="path1" /></g></svg>
