<?xml version="1.0" encoding="UTF-8" standalone="no"?>
<!-- Created with Inkscape (http://www.inkscape.org/) -->

<svg
   width="210mm"
   height="210mm"
   viewBox="0 0 210 210"
   version="1.1"
   id="svg1"
   xml:space="preserve"
   inkscape:export-filename="exit.svg"
   inkscape:export-xdpi="96"
   inkscape:export-ydpi="96"
   xmlns:inkscape="http://www.inkscape.org/namespaces/inkscape"
   xmlns:sodipodi="http://sodipodi.sourceforge.net/DTD/sodipodi-0.dtd"
   xmlns="http://www.w3.org/2000/svg"
   xmlns:svg="http://www.w3.org/2000/svg"><sodipodi:namedview
     id="namedview1"
     pagecolor="#ffffff"
     bordercolor="#000000"
     borderopacity="0.25"
     inkscape:showpageshadow="2"
     inkscape:pageopacity="0.0"
     inkscape:pagecheckerboard="0"
     inkscape:deskcolor="#d1d1d1"
     inkscape:document-units="mm"><inkscape:page
       x="0"
       y="0"
       width="210"
       height="210"
       id="page2"
       margin="0"
       bleed="0" /></sodipodi:namedview><defs
     id="defs1" /><g
     inkscape:label="Layer 1"
     inkscape:groupmode="layer"
     id="layer1"><path
       style="fill:#000000;stroke-width:9.85047"
       d="M 19.298861,208.52668 C 12.897801,206.96804 6.9166372,202.06537 3.8896083,195.89602 0.57515262,189.14076 0.70171142,193.01594 0.85370417,102.93647 L 0.99141368,21.326683 2.3127751,17.715009 C 5.6050869,8.7161248 12.022518,2.8506636 20.315941,1.2603057 22.471283,0.84698013 32.699535,0.72069713 55.150967,0.83013573 l 31.783744,0.1549479 2.187592,1.16794027 C 96.575757,6.132465 95.944539,17.511341 88.0883,20.793891 c -1.627495,0.680076 -5.948895,0.787347 -31.77682,0.789023 -28.350009,0.0018 -29.973898,0.05122 -31.459368,0.957071 -3.50587,2.137876 -3.266032,-3.926259 -3.253649,82.264215 0.01084,75.25974 0.04137,77.79752 0.977068,79.85745 1.835447,4.04273 -5.298183,3.72062 82.412379,3.72062 85.57653,0 80.08538,0.19405 82.18088,-2.89811 0.91412,-1.34941 0.97913,-3.04616 1.21967,-32.19113 0.22657,-27.36824 0.34773,-30.93529 1.09597,-32.29239 1.90074,-3.4456 5.2302,-5.33964 9.38631,-5.33964 3.82977,0 6.76491,1.67704 8.70162,4.97182 l 1.41205,2.40204 0.14283,30.73041 c 0.11821,25.44031 0.01,31.41727 -0.60974,34.72062 -1.94074,10.2901 -9.21432,18.22347 -18.50046,20.17908 -4.02371,0.84714 -167.212653,0.71515 -170.71744,-0.1379 z m 79.525364,-92.76116 c -3.471698,-1.81357 -5.606689,-5.04166 -5.932444,-8.96973 -0.451151,-5.43707 -2.334167,-3.2876 40.243589,-45.93007 l 39.22525,-39.284767 h -13.86965 c -11.36813,0 -14.20929,-0.141945 -15.75336,-0.787052 -4.03672,-1.686676 -6.22018,-5.117032 -6.22018,-9.772442 0,-3.8049208 1.95099,-7.1410867 5.18628,-8.8684252 l 2.18758,-1.16794027 27.2069,-0.1615477 c 31.18402,-0.1851888 31.49204,-0.156918 34.8484,3.19942187 3.35624,3.3563001 3.38461,3.6643731 3.19942,34.8483723 l -0.16155,27.206893 -1.16797,2.187591 c -3.97949,7.453454 -15.35835,6.822335 -18.64082,-1.033905 -0.64323,-1.539726 -0.78706,-4.348489 -0.78706,-15.376481 0,-7.420947 -0.17238,-13.492579 -0.38219,-13.492579 -0.2108,0 -17.65973,17.300868 -38.77617,38.446374 -26.19308,26.229037 -39.03996,38.749567 -40.42769,39.400687 -3.05118,1.43146 -6.69793,1.26913 -9.977744,-0.44426 z"
       id="path1" /></g></svg>
