<?xml version="1.0" encoding="UTF-8" standalone="no"?>
<!-- Created with Inkscape (http://www.inkscape.org/) -->

<svg
   width="210mm"
   height="210mm"
   viewBox="0 0 210 210"
   version="1.1"
   id="svg1"
   xml:space="preserve"
   inkscape:export-filename="computer.svg"
   inkscape:export-xdpi="96"
   inkscape:export-ydpi="96"
   xmlns:inkscape="http://www.inkscape.org/namespaces/inkscape"
   xmlns:sodipodi="http://sodipodi.sourceforge.net/DTD/sodipodi-0.dtd"
   xmlns="http://www.w3.org/2000/svg"
   xmlns:svg="http://www.w3.org/2000/svg"><sodipodi:namedview
     id="namedview1"
     pagecolor="#ffffff"
     bordercolor="#000000"
     borderopacity="0.25"
     inkscape:showpageshadow="2"
     inkscape:pageopacity="0.0"
     inkscape:pagecheckerboard="0"
     inkscape:deskcolor="#d1d1d1"
     inkscape:document-units="mm"><inkscape:page
       x="0"
       y="0"
       width="210"
       height="210"
       id="page2"
       margin="0"
       bleed="0" /></sodipodi:namedview><defs
     id="defs1" /><g
     inkscape:label="Layer 1"
     inkscape:groupmode="layer"
     id="layer1"><path
       style="fill:#000000;stroke-width:1.54128"
       d="m 3.183426,187.11041 c -2.72136157,-1.19153 -2.62460792,0.0802 -2.47666076,-32.55398 0.13216449,-29.15177 0.14275306,-29.47985 1.04707876,-32.4373 1.9581767,-6.40386 4.8575881,-11.37528 9.120432,-15.63812 4.51466,-4.51466 11.441372,-8.295373 17.199221,-9.387628 1.491449,-0.282926 2.711727,-0.610506 2.711727,-0.727957 0,-0.117446 -0.868854,-0.672005 -1.930786,-1.232339 -2.590759,-1.367028 -7.243106,-5.095691 -9.445485,-7.570161 -6.477469,-7.277731 -9.9281491,-16.340188 -9.9274647,-26.07232 5.425e-4,-7.710174 1.6304137,-13.660446 5.5746167,-20.351604 2.015068,-3.418471 7.239386,-9.054861 10.606409,-11.443 16.174989,-11.472486 38.038805,-9.281537 51.405175,5.151258 4.400112,4.751169 7.658553,10.72059 9.423673,17.264036 1.147445,4.253674 1.056156,14.637639 -0.168497,19.166417 -1.238406,4.579632 -4.455838,10.839772 -7.547824,14.685759 -2.728712,3.394124 -7.236684,7.286044 -10.568647,9.124351 -1.062136,0.585999 -1.9338,1.18225 -1.937031,1.324998 -0.0032,0.142753 0.863242,0.389877 1.925496,0.549173 1.062255,0.159294 3.391437,0.82248 5.17596,1.473747 10.708115,3.90798 18.731322,12.77126 21.92828,24.22427 0.903186,3.23565 0.910757,3.5037 0.924026,32.7175 l 0.01341,29.45511 -1.333096,1.3335 -1.333095,1.33348 -44.543969,0.0897 c -37.350674,0.0752 -44.7537339,-0.002 -45.8429172,-0.47895 z m 113.804904,0.31265 c -0.47375,-0.0931 -1.39129,-0.72263 -2.03898,-1.39885 l -1.17761,-1.22947 0.0139,-29.43619 c 0.0139,-29.19418 0.0208,-29.46298 0.92402,-32.69854 1.883,-6.74575 5.21895,-12.29932 10.22449,-17.0213 4.64361,-4.38054 11.4242,-7.839024 17.078,-8.710756 0.95322,-0.146977 1.73048,-0.3814 1.72725,-0.52095 -0.003,-0.139548 -0.87489,-0.733183 -1.93703,-1.319182 -7.94683,-4.384416 -14.96181,-13.414139 -17.88344,-23.019652 -1.00528,-3.305089 -1.11178,-4.272555 -1.14192,-10.373666 -0.0287,-5.804227 0.0945,-7.195695 0.89627,-10.12828 7.85403,-28.726121 42.93426,-38.880893 64.41574,-18.646607 4.19378,3.950294 6.49768,7.113067 8.82566,12.115796 2.1303,4.577951 2.94438,7.470564 3.50294,12.446823 1.21148,10.793549 -2.58121,22.11928 -10.19805,30.453309 -2.08741,2.283955 -7.13821,6.278758 -9.81443,7.76247 l -1.3855,0.768126 2.65067,0.546846 c 3.46189,0.714213 5.6541,1.532908 9.34846,3.491293 8.49966,4.50569 14.18437,11.63456 17.23615,21.61485 0.90432,2.95745 0.91491,3.28553 1.04708,32.4373 0.11991,26.43733 0.0664,29.57944 -0.5228,30.71878 -1.31439,2.54174 0.83372,2.43371 -47.17975,2.37275 -24.06207,-0.0305 -44.13685,-0.13178 -44.61059,-0.2249 z"
       id="path1" /></g></svg>
