<?xml version="1.0" encoding="UTF-8" standalone="no"?>
<!-- Created with Inkscape (http://www.inkscape.org/) -->

<svg
   width="210mm"
   height="210mm"
   viewBox="0 0 210 210"
   version="1.1"
   id="svg1"
   xml:space="preserve"
   inkscape:export-filename="rules.svg"
   inkscape:export-xdpi="96"
   inkscape:export-ydpi="96"
   xmlns:inkscape="http://www.inkscape.org/namespaces/inkscape"
   xmlns:sodipodi="http://sodipodi.sourceforge.net/DTD/sodipodi-0.dtd"
   xmlns="http://www.w3.org/2000/svg"
   xmlns:svg="http://www.w3.org/2000/svg"><sodipodi:namedview
     id="namedview1"
     pagecolor="#ffffff"
     bordercolor="#000000"
     borderopacity="0.25"
     inkscape:showpageshadow="2"
     inkscape:pageopacity="0.0"
     inkscape:pagecheckerboard="0"
     inkscape:deskcolor="#d1d1d1"
     inkscape:document-units="mm"><inkscape:page
       x="0"
       y="0"
       width="210"
       height="210"
       id="page2"
       margin="0"
       bleed="0" /></sodipodi:namedview><defs
     id="defs1" /><g
     inkscape:label="Layer 1"
     inkscape:groupmode="layer"
     id="layer1"><path
       style="fill:#000000;stroke-width:1.54393"
       d="m 97.117655,209.2768 c -4.44334,-0.35968 -13.704951,-1.91346 -17.969084,-3.0146 -21.382739,-5.52169 -41.380435,-18.14882 -54.23295,-34.24432 -0.833237,-1.04349 -1.12337,-1.8605 -1.12337,-3.16347 0,-1.74499 0.06564,-1.8233 9.906076,-11.81659 13.032843,-13.2353 12.871762,-13.17622 18.51508,-6.79127 18.082023,20.45834 43.793541,28.67961 69.671713,22.27758 22.13098,-5.475 40.14126,-21.53889 48.39356,-43.16358 3.06462,-8.03068 4.31765,-15.11342 4.31765,-24.40534 0,-9.291901 -1.25303,-16.374657 -4.31765,-24.40533 -7.2696,-19.049589 -21.7404,-33.520397 -40.78999,-40.78999 -9.34798,-3.567327 -19.50562,-4.999985 -29.896358,-4.216657 -15.511695,1.169373 -28.59872,6.682344 -40.656319,17.126657 l -1.416809,1.227237 10.051416,10.10825 c 5.528278,5.559537 10.347838,10.696545 10.710138,11.415585 0.891827,1.769959 0.814693,4.436511 -0.192606,6.658366 -1.031167,2.274531 -2.173717,3.526659 -4.136496,4.533239 -1.45285,0.745069 -2.864969,0.776875 -34.109584,0.768276 C 9.0188803,87.373068 7.1577384,87.33082 5.5851919,86.616597 3.5781483,85.705014 1.4536299,83.242894 0.89668856,81.183061 0.63663236,80.221239 0.52918876,68.000326 0.60039516,47.481961 L 0.71211206,15.289904 1.6396228,13.553616 c 1.7132926,-3.207266 6.5327297,-5.239294 9.9894462,-4.21187 1.456915,0.43304 3.341162,2.103635 11.36456,10.075977 5.289944,5.256277 9.753754,9.556863 9.919577,9.556863 0.165822,0 2.128874,-1.536874 4.362339,-3.415266 C 53.189494,12.175304 71.399021,4.1357388 92.62416,1.1227295 c 4.818563,-0.68402247 20.11762,-0.67312237 25.12262,0.01791 19.07387,2.6334497 36.98413,10.1042455 51.87925,21.6400865 4.73195,3.664764 12.49769,11.292361 16.30981,16.01972 12.35481,15.321046 20.2226,33.649454 22.96209,53.491342 0.69756,5.052367 0.69756,20.274492 0,25.326862 -2.73885,19.83726 -10.5919,38.13491 -22.95761,53.49133 -4.05906,5.04075 -12.17447,12.90681 -17.21773,16.68865 -14.83684,11.12591 -31.44339,18.08016 -49.54607,20.74819 -4.00995,0.59098 -18.04012,1.05526 -22.058865,0.72998 z"
       id="path1" /></g></svg>
