<?xml version="1.0" encoding="UTF-8" standalone="no"?>
<!-- Created with Inkscape (http://www.inkscape.org/) -->

<svg
   width="210mm"
   height="210mm"
   viewBox="0 0 210 210"
   version="1.1"
   id="svg1"
   xml:space="preserve"
   xmlns:inkscape="http://www.inkscape.org/namespaces/inkscape"
   xmlns:sodipodi="http://sodipodi.sourceforge.net/DTD/sodipodi-0.dtd"
   xmlns="http://www.w3.org/2000/svg"
   xmlns:svg="http://www.w3.org/2000/svg"><sodipodi:namedview
     id="namedview1"
     pagecolor="#ffffff"
     bordercolor="#000000"
     borderopacity="0.25"
     inkscape:showpageshadow="2"
     inkscape:pageopacity="0.0"
     inkscape:pagecheckerboard="0"
     inkscape:deskcolor="#d1d1d1"
     inkscape:document-units="mm"><inkscape:page
       x="0"
       y="0"
       width="210"
       height="210"
       id="page2"
       margin="0"
       bleed="0" /></sodipodi:namedview><defs
     id="defs1" /><g
     inkscape:label="Layer 1"
     inkscape:groupmode="layer"
     id="layer1"><path
       style="fill:#000000;stroke-width:1.54488"
       d="M 39.304636,209.01434 C 32.469029,207.17342 27.180593,201.70652 25.758945,195.01152 25.109793,191.95446 25.103617,18.096422 25.752611,14.997296 27.190444,8.1306009 33.034788,2.2888925 39.931993,0.82430814 41.460537,0.49972982 55.107069,0.36435638 86.298278,0.36435638 c 43.188702,0 44.238262,0.0184922 45.862092,0.80772342 2.3593,1.1466969 51.05942,49.9299622 51.92148,52.0101122 0.55874,1.348235 0.62979,9.312331 0.62979,70.591478 0,49.61802 -0.12962,69.68186 -0.45996,71.23785 -1.46458,6.89721 -7.30629,12.74156 -14.17298,14.17938 -1.53608,0.32165 -20.55709,0.44575 -65.40004,0.42667 -53.06706,-0.0226 -63.578045,-0.11958 -65.373963,-0.60323 z M 169.18985,196.55895 c 1.03835,-0.52972 1.90649,-1.39787 2.43622,-2.43622 0.81469,-1.59691 0.823,-2.27411 0.823,-67.02952 V 61.676888 h -16.26414 c -17.59961,0 -18.76811,-0.115882 -23.05074,-2.286067 -4.3374,-2.197923 -8.21666,-7.361879 -9.2752,-12.346873 -0.2964,-1.395879 -0.45994,-7.901813 -0.45994,-18.297353 V 12.6153 l -40.977213,0.107972 -40.977209,0.107971 -1.278044,0.911639 C 37.330057,15.766196 37.544558,7.9128806 37.66091,105.4808 l 0.10496,88.01804 0.906682,1.27108 c 1.991504,2.7919 -3.085529,2.59244 66.246818,2.60274 61.99957,0.009 62.67419,6.7e-4 64.27047,-0.8137 z M 65.529707,172.03154 c -1.919027,-0.94993 -3.443195,-3.29862 -3.443195,-5.30585 0,-1.88099 1.475819,-4.25625 3.271654,-5.26556 1.523723,-0.85638 1.818114,-0.86569 27.384612,-0.86569 25.813102,0 25.846262,0.001 27.432762,0.89275 1.67334,0.94047 3.22351,3.45963 3.22351,5.2385 0,1.94876 -1.5866,4.39989 -3.42363,5.28918 -1.69948,0.82272 -2.32635,0.84207 -27.259506,0.84175 -24.771588,-3.1e-4 -25.568888,-0.0246 -27.186207,-0.82508 z m 0,-24.52501 c -1.919027,-0.94993 -3.443195,-3.29862 -3.443195,-5.30585 0,-1.88099 1.475819,-4.25625 3.271654,-5.26557 1.538248,-0.86454 1.590596,-0.86569 39.647114,-0.86569 h 38.10684 l 1.58843,0.89276 c 1.67334,0.94046 3.22351,3.45962 3.22351,5.2385 0,1.94876 -1.5866,4.39988 -3.42363,5.28918 -1.71796,0.83166 -2.2071,0.84207 -39.52201,0.84174 -37.070096,-3e-4 -37.813947,-0.0159 -39.448713,-0.82507 z m 0,-24.52501 c -1.919027,-0.94994 -3.443195,-3.29862 -3.443195,-5.30586 0,-1.88099 1.475819,-4.25624 3.271654,-5.26556 1.538248,-0.86455 1.590596,-0.86569 39.647114,-0.86569 h 38.10684 l 1.58843,0.89276 c 1.67334,0.94046 3.22351,3.45962 3.22351,5.23849 0,1.94876 -1.5866,4.3999 -3.42363,5.28919 -1.71796,0.83165 -2.2071,0.84207 -39.52201,0.84174 -37.070096,-3.1e-4 -37.813947,-0.0159 -39.448713,-0.82507 z m 0,-24.525019 c -1.919027,-0.949917 -3.443195,-3.298612 -3.443195,-5.305847 0,-1.880993 1.475819,-4.256252 3.271654,-5.265567 1.538248,-0.864543 1.590596,-0.865686 39.647114,-0.865686 h 38.10684 l 1.58843,0.892747 c 1.67334,0.940469 3.22351,3.459637 3.22351,5.238506 0,1.948754 -1.5866,4.399897 -3.42363,5.289178 -1.71796,0.831657 -2.2071,0.842069 -39.52201,0.841745 -37.070096,-3.09e-4 -37.813947,-0.01591 -39.448713,-0.825076 z m 84.231463,-62.94419 -13.89525,-13.90207 -0.12235,3.172378 c -0.0674,1.744807 -0.0674,7.127035 0,11.960507 0.11587,8.318617 0.17082,8.856037 1.02905,10.059213 1.77721,2.491482 2.3683,2.592453 15.2367,2.602735 l 11.64713,0.0093 z"
       id="path1" /></g></svg>
