<?xml version="1.0" encoding="UTF-8" standalone="no"?>
<!-- Created with Inkscape (http://www.inkscape.org/) -->

<svg
   width="210mm"
   height="210mm"
   viewBox="0 0 210 210"
   version="1.1"
   id="svg1"
   xml:space="preserve"
   inkscape:export-filename="moon.svg"
   inkscape:export-xdpi="96"
   inkscape:export-ydpi="96"
   xmlns:inkscape="http://www.inkscape.org/namespaces/inkscape"
   xmlns:sodipodi="http://sodipodi.sourceforge.net/DTD/sodipodi-0.dtd"
   xmlns="http://www.w3.org/2000/svg"
   xmlns:svg="http://www.w3.org/2000/svg"><sodipodi:namedview
     id="namedview1"
     pagecolor="#ffffff"
     bordercolor="#000000"
     borderopacity="0.25"
     inkscape:showpageshadow="2"
     inkscape:pageopacity="0.0"
     inkscape:pagecheckerboard="0"
     inkscape:deskcolor="#d1d1d1"
     inkscape:document-units="mm"><inkscape:page
       x="0"
       y="0"
       width="210"
       height="210"
       id="page2"
       margin="0"
       bleed="0" /></sodipodi:namedview><defs
     id="defs1" /><g
     inkscape:label="Layer 1"
     inkscape:groupmode="layer"
     id="layer1"><path
       style="fill:#000000;stroke-width:14.7925"
       d="m 98.161279,205.11645 c -12.55291,-12.55276 -0.248514,-45.36651 12.915621,-34.44181 10.23315,8.49267 5.63624,39.13843 -5.8707,39.13843 -1.29138,0 -4.46186,-2.11341 -7.044921,-4.69662 z M 28.109948,172.02002 c -3.171171,-8.26397 19.601089,-29.53321 28.120233,-26.26422 8.675798,3.32935 7.231311,14.49827 -3.134677,24.23661 -10.782692,10.12976 -21.54142,11.00281 -24.985556,2.02761 z M 156.7684,169.44391 c -18.37583,-19.56026 -4.39811,-32.87306 15.6796,-14.93362 8.25362,7.37465 11.51788,13.17479 9.85446,17.50973 -3.54177,9.22963 -15.58448,8.01472 -25.53406,-2.57611 z M 86.893245,140.87738 C 71.576062,133.3236 60.657427,112.03483 64.088398,96.413517 67.261092,81.968647 83.035511,66.19408 97.480528,63.021386 c 16.028852,-3.520465 37.060522,7.522723 44.604842,23.420955 7.67257,16.168789 7.67257,19.225059 0,35.393699 -5.81907,12.26283 -25.40581,25.47001 -37.47072,25.26632 -2.90362,-0.0444 -10.87825,-2.85022 -17.721405,-6.22498 z M 3.446172,110.01004 c -3.88718622,-4.68375 -3.88718622,-7.0578 0,-11.741545 6.2945609,-7.584555 28.930079,-7.584555 35.22458,0 7.171845,8.641475 -1.798767,17.612235 -17.612268,17.612235 -7.007011,0 -14.9325483,-2.64179 -17.612312,-5.87069 z m 168.295488,0 c -7.172,-8.64163 1.79876,-17.612389 17.61223,-17.612389 15.81347,0 24.78423,8.970759 17.61239,17.612389 -2.67981,3.2289 -10.60533,5.87069 -17.61239,5.87069 -7.00705,0 -14.93257,-2.64179 -17.61223,-5.87069 z M 37.964411,53.768238 c -8.25362,-7.37465 -11.517953,-13.174786 -9.854463,-17.509875 3.541766,-9.229687 15.584483,-8.014632 25.533914,2.576261 18.375975,19.560114 4.398252,32.872914 -15.679451,14.933614 z m 115.186339,8.420627 c -7.76488,-2.784243 -5.6994,-14.63451 4.16615,-23.902747 16.32692,-15.338395 32.09454,-8.35619 20.63287,9.136732 -7.19152,10.975586 -17.78265,17.281774 -24.79902,14.766015 z M 98.161279,36.82107 C 85.608369,24.268249 97.912765,-8.5454953 111.0769,2.3792048 c 10.23315,8.4926662 5.63624,39.1384822 -5.8707,39.1384822 -1.29138,0 -4.46186,-2.113552 -7.044921,-4.696617 z"
       id="path1" /></g></svg>
