<?xml version="1.0" encoding="UTF-8" standalone="no"?>
<!-- Created with Inkscape (http://www.inkscape.org/) -->

<svg
   width="135.26666mm"
   height="135.21864mm"
   viewBox="0 0 135.26666 135.21864"
   version="1.1"
   id="svg1"
   xml:space="preserve"
   xmlns:inkscape="http://www.inkscape.org/namespaces/inkscape"
   xmlns:sodipodi="http://sodipodi.sourceforge.net/DTD/sodipodi-0.dtd"
   xmlns="http://www.w3.org/2000/svg"
   xmlns:svg="http://www.w3.org/2000/svg"><sodipodi:namedview
     id="namedview1"
     pagecolor="#ffffff"
     bordercolor="#000000"
     borderopacity="0.25"
     inkscape:showpageshadow="2"
     inkscape:pageopacity="0.0"
     inkscape:pagecheckerboard="0"
     inkscape:deskcolor="#d1d1d1"
     inkscape:document-units="mm"><inkscape:page
       x="0"
       y="0"
       width="135.26666"
       height="135.21864"
       id="page2"
       margin="0"
       bleed="0" /></sodipodi:namedview><defs
     id="defs1" /><g
     inkscape:label="Layer 1"
     inkscape:groupmode="layer"
     id="layer1"
     transform="translate(-39.642747,-62.781538)"><path
       style="fill:#000000"
       d="m 102.1707,197.93072 c -2.877941,-0.23296 -8.876662,-1.23934 -11.638533,-1.95254 -13.84956,-3.57638 -26.802026,-11.75496 -35.126574,-22.17998 -0.539686,-0.67587 -0.727604,-1.20505 -0.727604,-2.04897 0,-1.13023 0.04252,-1.18095 6.416145,-7.65358 8.441346,-8.57248 8.337014,-8.53421 11.99218,-4.39869 11.711689,13.25082 28.364986,18.57572 45.126226,14.42914 14.33419,-3.54615 25.99942,-13.9507 31.34441,-27.95696 1.98495,-5.20145 2.79654,-9.78894 2.79654,-15.80729 0,-6.01835 -0.81159,-10.60584 -2.79654,-15.80729 -4.7085,-12.33838 -14.08121,-21.711093 -26.41959,-26.419593 -6.05467,-2.31055 -12.63375,-3.23848 -19.36381,-2.73112 -10.046893,0.7574 -18.523336,4.32814 -26.333018,11.0929 l -0.917664,0.79488 6.510281,6.547093 c 3.580655,3.6009 6.702275,6.92813 6.936935,7.39385 0.577634,1.1464 0.527675,2.87352 -0.124747,4.31261 -0.667888,1.47321 -1.407916,2.28421 -2.679205,2.93617 -0.941008,0.48258 -1.855634,0.50318 -22.092707,0.49761 -19.964118,-0.005 -21.169576,-0.0324 -22.188111,-0.495 -1.299958,-0.59043 -2.676004,-2.18514 -3.036734,-3.51929 -0.168438,-0.62297 -0.238029,-8.53843 -0.191909,-21.828133 l 0.07236,-20.85073 0.600747,-1.12459 c 1.109696,-2.07734 4.231235,-3.39348 6.470143,-2.72802 0.943641,0.28048 2.164064,1.36252 7.360803,6.52619 3.426286,3.40448 6.317486,6.18996 6.424889,6.18996 0.107403,0 1.378868,-0.99543 2.825479,-2.21206 10.307431,-8.6688 22.101705,-13.87601 35.849187,-15.82753 3.120971,-0.44304 13.030141,-0.43598 16.271871,0.0116 12.3541,1.70568 23.95455,6.5445 33.60208,14.01624 3.06488,2.37366 8.09473,7.31404 10.56383,10.37594 8.00219,9.92341 13.09814,21.794683 14.8725,34.646233 0.45181,3.27241 0.45181,13.13175 0,16.40416 -1.77395,12.84856 -6.86035,24.6999 -14.8696,34.64623 -2.62904,3.26488 -7.88538,8.35971 -11.15189,10.80921 -9.60978,7.20622 -20.36581,11.71047 -32.09088,13.43855 -2.59724,0.38278 -11.68455,0.6835 -14.28749,0.4728 z"
       id="path1" /></g></svg>
